REM DIRINDEX 1\6,1\2\7,1\2\8,1\2\9,1\3\10,1\3\11,1\4\12,1\4\13,1\4\14,1\5\15,1\5\16,1\5\17
REM DIRNAME folder01,folder02,folder03,folder04,folder05,folder06,folder07,folder08,folder09,folder10,folder11,folder12,folder13,folder14,folder15,folder16,folder17
TITLE ""
FILE "3Q_t_0142-0157.mp3" MP3
  TRACK 01 AUDIO
    TITLE "10:cjc041_1888"
    INDEX 01 00:00:00
  TRACK 02 AUDIO
    TITLE "0:"
    INDEX 01 00:00:68
  TRACK 03 AUDIO
    TITLE "11:cjc041_1889"
    INDEX 01 00:01:48
  TRACK 04 AUDIO
    TITLE "0:"
    INDEX 01 00:03:72
  TRACK 05 AUDIO
    TITLE "10:cjc041_1890"
    INDEX 01 00:04:52
  TRACK 06 AUDIO
    TITLE "0:"
    INDEX 01 00:05:65
  TRACK 07 AUDIO
    TITLE "11:cjc041_1891"
    INDEX 01 00:06:41
  TRACK 08 AUDIO
    TITLE "0:"
    INDEX 01 00:07:47
  TRACK 09 AUDIO
    TITLE "10:cjc041_1892"
    INDEX 01 00:08:26
  TRACK 10 AUDIO
    TITLE "0:"
    INDEX 01 00:09:28
  TRACK 11 AUDIO
    TITLE "11:cjc041_1893"
    INDEX 01 00:10:12
  TRACK 12 AUDIO
    TITLE "0:"
    INDEX 01 00:12:11
  TRACK 13 AUDIO
    TITLE "10:cjc041_1894"
    INDEX 01 00:12:60
  TRACK 14 AUDIO
    TITLE "0:"
    INDEX 01 00:13:65
  TRACK 15 AUDIO
    TITLE "11:cjc041_1895"
    INDEX 01 00:14:35
  TRACK 16 AUDIO
    TITLE "0:"
    INDEX 01 00:17:29
  TRACK 17 AUDIO
    TITLE "10:cjc041_1896"
    INDEX 01 00:18:03
  TRACK 18 AUDIO
    TITLE "0:"
    INDEX 01 00:19:28
  TRACK 19 AUDIO
    TITLE "11:cjc041_1897"
    INDEX 01 00:20:14
  TRACK 20 AUDIO
    TITLE "0:"
    INDEX 01 00:21:35
  TRACK 21 AUDIO
    TITLE "10:cjc041_1898"
    INDEX 01 00:22:09
  TRACK 22 AUDIO
    TITLE "0:"
    INDEX 01 00:23:22
  TRACK 23 AUDIO
    TITLE "11:cjc041_1899"
    INDEX 01 00:24:04
  TRACK 24 AUDIO
    TITLE "0:"
    INDEX 01 00:26:26
  TRACK 25 AUDIO
    TITLE "10:cjc041_1900"
    INDEX 01 00:27:06
  TRACK 26 AUDIO
    TITLE "0:"
    INDEX 01 00:28:15
  TRACK 27 AUDIO
    TITLE "11:cjc041_1901"
    INDEX 01 00:28:68
  TRACK 28 AUDIO
    TITLE "0:"
    INDEX 01 00:30:59
  TRACK 29 AUDIO
    TITLE "10:cjc041_1902"
    INDEX 01 00:31:37
  TRACK 30 AUDIO
    TITLE "0:"
    INDEX 01 00:32:41
  TRACK 31 AUDIO
    TITLE "11:cjc041_1903"
    INDEX 01 00:33:21
  TRACK 32 AUDIO
    TITLE "0:"
    INDEX 01 00:35:41
  TRACK 33 AUDIO
    TITLE "10:cjc041_1904"
    INDEX 01 00:36:21
  TRACK 34 AUDIO
    TITLE "0:"
    INDEX 01 00:37:32
  TRACK 35 AUDIO
    TITLE "11:cjc041_1905"
    INDEX 01 00:38:16
  TRACK 36 AUDIO
    TITLE "0:"
    INDEX 01 00:39:03
  TRACK 37 AUDIO
    TITLE "10:cjc041_1906"
    INDEX 01 00:39:56
  TRACK 38 AUDIO
    TITLE "0:"
    INDEX 01 00:40:64
  TRACK 39 AUDIO
    TITLE "11:cjc041_1907"
    INDEX 01 00:41:44
  TRACK 40 AUDIO
    TITLE "0:"
    INDEX 01 00:42:35
  TRACK 41 AUDIO
    TITLE "10:cjc041_1908"
    INDEX 01 00:43:15
  TRACK 42 AUDIO
    TITLE "0:"
    INDEX 01 00:44:38
  TRACK 43 AUDIO
    TITLE "11:cjc041_1909"
    INDEX 01 00:45:18
  TRACK 44 AUDIO
    TITLE "0:"
    INDEX 01 00:46:49
  TRACK 45 AUDIO
    TITLE "10:cjc041_1910"
    INDEX 01 00:47:30
  TRACK 46 AUDIO
    TITLE "0:"
    INDEX 01 00:48:44
  TRACK 47 AUDIO
    TITLE "11:cjc041_1911"
    INDEX 01 00:49:21
  TRACK 48 AUDIO
    TITLE "0:"
    INDEX 01 00:52:22
  TRACK 49 AUDIO
    TITLE "10:cjc041_1912"
    INDEX 01 00:53:02
  TRACK 50 AUDIO
    TITLE "0:"
    INDEX 01 00:54:07
  TRACK 51 AUDIO
    TITLE "11:cjc041_1913"
    INDEX 01 00:54:64
  TRACK 52 AUDIO
    TITLE "0:"
    INDEX 01 00:58:26
  TRACK 53 AUDIO
    TITLE "10:cjc041_1914"
    INDEX 01 00:59:08
  TRACK 54 AUDIO
    TITLE "0:"
    INDEX 01 01:00:23
  TRACK 55 AUDIO
    TITLE "11:cjc041_1915"
    INDEX 01 01:01:03
  TRACK 56 AUDIO
    TITLE "0:"
    INDEX 01 01:03:14
  TRACK 57 AUDIO
    TITLE "10:cjc041_1916"
    INDEX 01 01:03:71
  TRACK 58 AUDIO
    TITLE "0:"
    INDEX 01 01:04:74
  TRACK 59 AUDIO
    TITLE "11:cjc041_1917"
    INDEX 01 01:05:56
  TRACK 60 AUDIO
    TITLE "0:"
    INDEX 01 01:07:47
  TRACK 61 AUDIO
    TITLE "10:cjc041_1918"
    INDEX 01 01:08:23
  TRACK 62 AUDIO
    TITLE "0:"
    INDEX 01 01:09:26
  TRACK 63 AUDIO
    TITLE "11:cjc041_1919"
    INDEX 01 01:10:06
  TRACK 64 AUDIO
    TITLE "0:"
    INDEX 01 01:12:64
